<svg xmlns="http://www.w3.org/2000/svg" viewBox="0 0 500 500"><defs><style>.cls-1{fill:#02023b;}</style></defs><g id="OBJECTS"><path class="cls-1" d="M341.34,343.54h68.85a23,23,0,0,0,19.35-35.34L270.65,59.71a24.09,24.09,0,0,0-40.59,0l-3.44,5.38h0l-31.76,49.66Z"/><path class="cls-1" d="M200.81,166a23,23,0,0,0-38.69,0L5.54,410.83a24.1,24.1,0,0,0,20.3,37.08H93l143.92-225.6Z"/><path class="cls-1" d="M495.17,410.83l-28.58-44.69H171.94l-29.63,46.45a23,23,0,0,0,19.36,35.32h313.2A24.1,24.1,0,0,0,495.17,410.83Z"/><polygon class="cls-1" points="307.35 342.55 250.35 253.41 193.36 342.55 307.35 342.55"/></g></svg>