<svg xmlns="http://www.w3.org/2000/svg" xmlns:xlink="http://www.w3.org/1999/xlink" viewBox="0 0 500 500"><defs><style>.cls-1{isolation:isolate;}.cls-2{fill:url(#Degradado_sin_nombre_8);}.cls-3{fill:url(#Degradado_sin_nombre_8-2);}.cls-4{fill:url(#Degradado_sin_nombre_8-3);}.cls-10,.cls-5,.cls-6,.cls-7,.cls-9{mix-blend-mode:soft-light;}.cls-5{fill:url(#Degradado_sin_nombre_32);}.cls-6{fill:url(#Degradado_sin_nombre_32-2);}.cls-7{fill:url(#Degradado_sin_nombre_32-3);}.cls-8{fill:url(#Degradado_sin_nombre_8-4);}.cls-9{fill:url(#Degradado_sin_nombre_32-4);}.cls-10{fill:url(#Degradado_sin_nombre_32-5);}</style><linearGradient id="Degradado_sin_nombre_8" x1="475.59" y1="404.98" x2="168.16" y2="406.05" gradientUnits="userSpaceOnUse"><stop offset="0" stop-color="#f84fff"/><stop offset="1" stop-color="#7b86ff"/></linearGradient><linearGradient id="Degradado_sin_nombre_8-2" x1="226.8" y1="78.21" x2="386.59" y2="328.7" xlink:href="#Degradado_sin_nombre_8"/><linearGradient id="Degradado_sin_nombre_8-3" x1="48.74" y1="429.34" x2="198.54" y2="193.32" xlink:href="#Degradado_sin_nombre_8"/><linearGradient id="Degradado_sin_nombre_32" x1="20.05" y1="423.29" x2="182.78" y2="165.72" gradientUnits="userSpaceOnUse"><stop offset="0" stop-color="#fff" stop-opacity="0"/><stop offset="1" stop-color="#fff"/></linearGradient><linearGradient id="Degradado_sin_nombre_32-2" x1="262.16" y1="70.52" x2="406.84" y2="327.5" xlink:href="#Degradado_sin_nombre_32"/><linearGradient id="Degradado_sin_nombre_32-3" x1="454.94" y1="412.46" x2="166.49" y2="439.17" xlink:href="#Degradado_sin_nombre_32"/><linearGradient id="Degradado_sin_nombre_8-4" x1="224.83" y1="261.12" x2="250.26" y2="343.09" xlink:href="#Degradado_sin_nombre_8"/><linearGradient id="Degradado_sin_nombre_32-4" x1="243.15" y1="256.32" x2="215.67" y2="342.16" xlink:href="#Degradado_sin_nombre_32"/><linearGradient id="Degradado_sin_nombre_32-5" x1="209.22" y1="324.53" x2="297.77" y2="324.53" xlink:href="#Degradado_sin_nombre_32"/></defs><g class="cls-1"><g id="OBJECTS"><path class="cls-2" d="M171.59,364.79l-29.52,46.27a22.88,22.88,0,0,0,19.29,35.18h312a24,24,0,0,0,20.22-36.93l-28.47-44.52Z"/><path class="cls-3" d="M340.35,342.27h68.59a22.87,22.87,0,0,0,19.27-35.2L269.92,59.52a24,24,0,0,0-40.44,0l-35.06,54.83Z"/><path class="cls-4" d="M236.29,221.5l-35.95-56.14a22.87,22.87,0,0,0-38.54,0L5.82,409.31A24,24,0,0,0,26,446.24H92.92Z"/><path class="cls-5" d="M200.34,165.36l2.89,4.5L26,446.24h0A24,24,0,0,1,5.82,409.31l156-243.94A22.87,22.87,0,0,1,200.34,165.36Z"/><path class="cls-6" d="M229.48,59.52l-3.42,5.36,179.4,277.39h3.48a22.87,22.87,0,0,0,19.27-35.2L269.92,59.52A24,24,0,0,0,229.48,59.52Z"/><path class="cls-7" d="M491.16,405.51H145.61l-3.54,5.55a22.88,22.88,0,0,0,19.29,35.18h312a24,24,0,0,0,20.22-36.93Z"/><polygon class="cls-8" points="306.48 341.29 249.7 252.49 192.93 341.29 306.48 341.29"/><polygon class="cls-9" points="192.93 341.29 249.7 307.77 249.7 252.49 192.93 341.29"/><polygon class="cls-10" points="306.48 341.29 192.93 341.29 249.7 307.77 306.48 341.29"/></g></g></svg>